<svg id="ecXgnb9pzE41" xmlns="http://www.w3.org/2000/svg" xmlns:xlink="http://www.w3.org/1999/xlink" viewBox="0 0 300 300" shape-rendering="geometricPrecision" text-rendering="geometricPrecision" project-id="0a93d98c55104c0ab78399fbf70a337e" export-id="f47b62e096df4178b8b301808c6edf6c" cached="false"><path d="M45,15c0,16.568542-13.431458,30-30,30s-30-13.431458-30-30s13.431458-30,30-30s30,13.431458,30,30Z" transform="translate(135.000001 97.013147)" fill="none" stroke="#3f5787" stroke-width="1.5" stroke-miterlimit="3"/><path d="M-15,35c0-27.614237,17.908611-50,40-50s40,22.385763,40,50" transform="translate(125 165)" fill="none" stroke="#3f5787" stroke-width="1.5" stroke-miterlimit="3"/><path d="M15.839137,0c0,8.284271-6.903576,15-15.419568,15C-8.096424,15,-15,8.284271,-15,0" transform="matrix(.762753 0 0 0.784029 149.679973 120.731108)" fill="none" stroke="#3f5787" stroke-width="1.5" stroke-miterlimit="3"/><ellipse rx="6.822357" ry="6.822357" transform="translate(131.416325 105.19079)" fill="#3f5787" stroke-width="0"/><ellipse rx="6.822357" ry="6.822357" transform="translate(168.929802 105.536917)" fill="#3f5787" stroke-width="0"/></svg>
