<svg id="evKtmRAMsEi1" xmlns="http://www.w3.org/2000/svg" xmlns:xlink="http://www.w3.org/1999/xlink" viewBox="0 0 300 300" shape-rendering="geometricPrecision" text-rendering="geometricPrecision" project-id="0a93d98c55104c0ab78399fbf70a337e" export-id="5f1af3210339402eac47ba1d10a2f360" cached="false"><path d="M45,15c0,16.568542-13.431458,30-30,30s-30-13.431458-30-30s13.431458-30,30-30s30,13.431458,30,30Z" transform="matrix(2.5 0 0 2.5 112.500001 37.5)" fill="none" stroke="#3f5787" stroke-width="1.5" stroke-miterlimit="3"/><path d="M-15,35c0-27.614237,17.908611-50,40-50s40,22.385763,40,50" transform="matrix(2.50259 0 0 2.50259 87.435251 212.40935)" fill="none" stroke="#3f5787" stroke-width="1.5" stroke-miterlimit="3"/><path d="M15.839137,0c0,8.284271-6.903576,15-15.419568,15C-8.096424,15,-15,8.284271,-15,0" transform="matrix(2.5 0 0 2.5 148.95108 81.497152)" fill="none" stroke="#3f5787" stroke-width="1.5" stroke-miterlimit="3"/><ellipse rx="6.822357" ry="6.822357" transform="matrix(2.5 0 0 2.5 188.548922 48.058741)" fill="#3f5787" stroke-width="0"/><ellipse rx="6.822357" ry="6.822357" transform="matrix(2.5 0 0 2.5 111.451079 48.058741)" fill="#3f5787" stroke-width="0"/></svg>
